<?xml version="1.0" standalone="no"?>
<!DOCTYPE svg PUBLIC "-//W3C//DTD SVG 20010904//EN"
 "http://www.w3.org/TR/2001/REC-SVG-20010904/DTD/svg10.dtd">
<svg version="1.0" xmlns="http://www.w3.org/2000/svg"
 width="16.000000pt" height="16.000000pt" viewBox="0 0 16.000000 16.000000"
 preserveAspectRatio="xMidYMid meet">
<metadata>
Created by potrace 1.11, written by Peter Selinger 2001-2013
</metadata>
<g transform="translate(0.000000,16.000000) scale(0.005479,-0.005479)"
fill="#000000" stroke="none">
<path d="M0 1460 l0 -1460 1460 0 1460 0 0 1460 0 1460 -1460 0 -1460 0 0
-1460z m561 1283 c186 -98 220 -109 425 -143 138 -22 169 -32 202 -63 l24 -22
-7 28 c-6 24 -4 27 17 27 33 0 141 -29 153 -41 6 -6 -12 -31 -51 -70 l-60 -60
-34 31 c-19 17 -52 41 -74 52 l-40 20 49 -53 c26 -30 73 -92 103 -139 30 -47
79 -110 109 -141 46 -47 54 -61 48 -80 -7 -23 -6 -23 7 -5 14 18 17 17 75 -29
57 -46 59 -49 42 -66 -9 -9 -20 -32 -24 -50 -6 -27 -4 -36 15 -51 38 -31 68
-33 96 -7 28 26 30 20 9 -21 -20 -40 -74 -56 -128 -40 -58 17 -112 53 -197
133 -41 38 -98 87 -127 108 -35 26 -55 50 -63 74 -15 44 -23 41 -11 -3 8 -28
7 -34 -12 -44 -37 -20 -174 -15 -241 10 -69 25 -150 72 -209 122 -49 40 -22 5
37 -49 57 -53 103 -82 176 -112 36 -14 63 -30 61 -35 -3 -5 -52 -48 -110 -97
-118 -97 -122 -98 -208 -55 -63 32 -118 81 -164 149 -34 50 -38 62 -29 80 10
18 9 20 -12 18 -48 -7 -48 -10 -48 360 0 318 3 367 19 359 4 -2 85 -44 182
-95z m1073 -335 c173 -266 337 -561 586 -1058 l60 -120 -654 0 -654 0 -18 53
c-27 82 -105 252 -173 376 -47 87 -59 116 -51 126 7 8 69 61 138 118 100 82
137 106 177 116 100 25 95 26 170 -39 220 -191 266 -220 343 -220 76 0 125 47
138 133 7 47 -21 85 -128 170 -137 110 -268 249 -268 285 0 13 199 232 211
232 5 0 61 -78 123 -172z m-27 -449 c38 -24 41 -53 8 -75 -16 -11 -25 -11 -44
-1 -35 18 -44 38 -32 70 13 33 23 34 68 6z m933 -849 l0 -60 -1100 0 -1100 0
0 60 0 60 1100 0 1100 0 0 -60z"/>
<path d="M840 2007 c-36 -17 -63 -21 -139 -21 -85 0 -92 -1 -65 -13 64 -27
177 -11 230 33 35 28 32 29 -26 1z"/>
</g>
</svg>
